<svg id="Layer_1" enable-background="new 0 0 64 64" height="512" viewBox="0 0 64 64" width="512" xmlns="http://www.w3.org/2000/svg"><g><g><path d="m59.08 54.85c-.795 2.243-2.254 4.811-4.95 6.626-1.559 1.05-3.436 1.524-5.315 1.524h-30.885c-1.518 0-3.026-.334-4.389-1.004-5.097-2.506-7.475-6.614-8.581-9.896z" fill="#ea4e56"/><path d="m57.05 57.476c-1.559 1.05-3.436 1.524-5.315 1.524h-36.765c-1.518 0-3.026-.334-4.389-1.004-1.798-.884-3.252-1.97-4.437-3.146 1.384 2.605 3.656 5.307 7.397 7.146 1.362.67 2.87 1.004 4.389 1.004h30.885c1.879 0 3.756-.474 5.315-1.524 2.109-1.419 3.453-3.299 4.323-5.124-.43.396-.887.777-1.403 1.124z" fill="#d83049"/><path d="m27.88 48.28 32.12 1.72s0 2.2-.92 4.85l-54.12-2.75c-.96-2.87-.96-5.1-.96-5.1l18 .96z" fill="#f99430"/><path d="m22 47.96s3.27-1.79 5-9.58c5.02-.95 15.76-2.65 27.96-2.53.74 1.65 1.42 3.37 2.04 5.15l-29.12 7.28z" fill="#34b8d6"/><path d="m54.96 35.85c-12.2-.12-22.94 1.58-27.96 2.53.5-2.25.87-5.01 1-8.38.7-18.25-6-29-6-29s22.2 10.75 32.96 34.85z" fill="#72d4e7"/></g><g fill="#252525"><path d="m60.054 49.001-25.477-1.365 22.666-5.666c.272-.068.503-.248.637-.495.133-.247.157-.539.064-.804-.63-1.807-1.323-3.556-2.059-5.199-.001-.002-.001-.003-.002-.005-.004-.008-.007-.017-.011-.025-10.783-24.153-33.211-35.233-33.436-35.342-.309-.15-.674-.13-.967.053-.292.182-.469.503-.469.847v45.909l-16.947-.908c-.272-.013-.542.084-.741.273s-.312.452-.312.726c0 .098.012 2.427 1.012 5.419.002.007.005.014.008.021 0 .001.001.002.001.002 1.11 3.281 3.585 7.748 9.079 10.45 1.472.725 3.142 1.108 4.83 1.108h30.885c2.196 0 4.227-.586 5.874-1.694 2.448-1.648 4.243-4.044 5.334-7.122.001-.002.001-.004.002-.006.964-2.777.975-5.081.975-5.178 0-.532-.416-.97-.946-.999zm-6.663-14.151c-1.131.003-2.272.015-3.42.048-.552.016-.987.476-.971 1.028.015.542.46.972.999.972h.029c1.437-.041 2.866-.053 4.271-.047.484 1.111.951 2.259 1.388 3.447l-27.903 6.975-3.451-.185c1.12-1.406 2.508-3.837 3.483-7.843 3.621-.664 10.312-1.723 18.24-2.177.551-.032.973-.504.941-1.056s-.51-.967-1.056-.941c-7.476.429-13.871 1.388-17.681 2.062.387-2.146.64-4.517.74-7.095.497-12.955-2.633-22.126-4.616-26.56 6.101 3.668 20.658 13.826 29.007 31.372zm-26.39-4.889c-.118 3.055-.447 5.814-.977 8.202 0 .001-.001.003-.001.004s0 .002-.001.003c-.846 3.805-2.065 6.075-3.022 7.375v-40.158c1.875 4.588 4.441 13.094 4.001 24.574zm26.57 30.685c-1.315.886-2.959 1.354-4.756 1.354h-30.885c-1.383 0-2.749-.312-3.948-.901-4.148-2.04-6.357-5.22-7.533-7.922l5.501.279c.018.001.035.001.052.001.529 0 .971-.415.998-.949.028-.552-.396-1.021-.948-1.049l-6.336-.322c-.365-1.244-.552-2.335-.636-3.078l53.856 2.885c-.074.693-.243 1.719-.58 2.868l-39.313-1.998c-.541-.029-1.021.396-1.049.948s.396 1.021.948 1.049l38.678 1.965c-.954 2.06-2.307 3.698-4.049 4.87z"/><path d="m43.953 27.626c.195.276.504.424.818.424.199 0 .4-.059.575-.183.451-.318.56-.942.241-1.394-2.795-3.966-6.111-7.752-9.854-11.254-.402-.376-1.035-.356-1.414.047-.377.403-.356 1.036.047 1.414 3.645 3.409 6.87 7.091 9.587 10.946z"/><circle cx="15.599" cy="52.66" r="1"/><circle cx="32.353" cy="13.408" r="1"/></g></g></svg>